# Blender 4.0.2
# www.blender.org
mtllib ramp.mtl
o Cube
v 1.000000 0.500000 -1.000000
v 1.000000 -0.500000 -1.000000
v 1.000000 -0.500000 1.000000
v -1.000000 0.500000 -1.000000
v -1.000000 -0.500000 -1.000000
v -1.000000 -0.500000 1.000000
v 1.000000 -0.500000 1.000000
v -1.000000 -0.500000 1.000000
v 1.000000 0.500000 -1.000000
v 1.000000 -0.500000 1.000000
v -1.000000 -0.500000 1.000000
vn -0.0000 -1.0000 -0.0000
vn -0.0000 -0.0000 -1.0000
vn -0.0000 0.8944 0.4472
vn 1.0000 -0.0000 -0.0000
vn -1.0000 -0.0000 -0.0000
vt 0.125000 0.500000
vt 0.375000 0.500000
vt 0.375000 0.750000
vt 0.125000 0.750000
vt 0.375000 0.250000
vt 0.625000 0.250000
vt 0.625000 0.500000
s 0
usemtl Material
f 5/1/1 2/2/1 3/3/1 6/4/1
f 5/5/2 4/6/2 1/7/2 2/2/2
f 1/7/3 4/6/3 8/6/3 7/7/3
f 2/2/4 1/7/4 10/2/4
f 4/6/5 5/5/5 11/5/5
l 2 9
